<svg height="511pt" viewBox="0 -52 511.99814 511" width="511pt" xmlns="http://www.w3.org/2000/svg"><path d="m177.207031 335.476562c-1.367187-.292968-2.722656-.566406-4.101562-.878906-31.867188-7.230468-57.570313-18.421875-78.304688-31.757812 11.535157 29.496094 31.414063 71.285156 53.054688 76.5 33.867187 8.15625 29.34375-43.84375 29.34375-43.84375zm0 0" fill="#60b8ff"/><path d="m177.207031 335.476562c-1.367187-.292968-2.722656-.566406-4.101562-.878906-31.867188-7.230468-57.570313-18.421875-78.304688-31.757812 4.425781 11.316406 10.085938 24.441406 16.59375 36.617187 17.453125 9.089844 37.851563 16.726563 61.710938 22.140625.574219.128906 1.136719.242188 1.707031.367188 3.609375-12.363282 2.382812-26.464844 2.382812-26.464844zm0 0" fill="#22a7ff"/><path d="m421.46875 170.882812c-5.460938 89.019532-84.515625 200.886719-248.363281 163.714844-163.847657-37.175781-164.757813-179.019531-164.757813-179.019531s16.988282-147.074219 140.226563-147.074219c147.183593 0 134.675781 151.964844 171.996093 165.660156 37.320313 13.695313 57.347657-15.652343 57.347657-15.652343s-62.992188-59.714844-14.421875-117.132813c0 0 1.648437 37.410156 26.328125 46.925782 21.84375 8.425781 25.257812 30.796874 25.257812 30.796874s14.796875-19.1875 41.503907-14.125c22.386718 4.246094 47.066406-19.960937 47.066406-19.960937s-9.878906 93.546875-82.183594 85.867187" fill="#8bcaff"/><path d="m439.710938 143.609375c-10.488282 1.5625-18.761719 9.601563-20.617188 20.039063-15.066406 84.773437-94.085938 178.410156-245.988281 143.949218-129.015625-29.273437-157.007813-123.441406-163.078125-162.15625-1.238282 6.347656-1.679688 10.136719-1.679688 10.136719s.910156 141.84375 164.757813 179.019531c163.847656 37.171875 242.902343-74.695312 248.363281-163.714844 72.304688 7.679688 82.183594-85.867187 82.183594-85.867187s-3.40625 3.335937-8.828125 7.3125c-8.507813 21.804687-24.757813 46.757813-55.113281 51.28125zm0 0" fill="#60b8ff"/><path d="m204.769531 286.277344c-87.253906-31.59375-75.347656-118.78125-75.347656-118.78125l-.011719-.015625c-24.722656-12.484375-42.792968-33.851563-70.089844-33.132813-34.589843.910156-50.972656 21.230469-50.972656 21.230469s.910156 141.84375 164.757813 179.015625c93.175781 21.140625 158.917969-5.929688 199.3125-49.578125-62.65625 17.824219-115.28125 20.226563-167.648438 1.261719zm0 0" fill="#ffe9c8"/><path d="m173.105469 307.597656c-121.699219-27.613281-153.507813-112.96875-161.816407-155.054687-1.964843 1.832031-2.941406 3.035156-2.941406 3.035156s.910156 141.84375 164.757813 179.019531c93.179687 21.136719 158.917969-5.929687 199.3125-49.578125-18.058594 5.132813-35.28125 8.980469-51.90625 11.414063-37.949219 18.277344-86.886719 24.894531-147.40625 11.164062zm0 0" fill="#ffdca7"/><path d="m156.070312 250.6875c-4.3125 94.957031 82.65625 161.488281 106.167969 146.039062 18.855469-12.386718-28.230469-64.386718-16.144531-121.738281" fill="#8bcaff"/><path d="m261.824219 369.523438c-19.511719 12.820312-79.035157-26.074219-104.414063-91 11.28125 79.71875 83.691406 132.09375 104.828125 118.203124 6.886719-4.523437 4.972657-14.339843.359375-27.769531-.246094.195313-.5.386719-.773437.566407zm0 0" fill="#60b8ff"/><path d="m507.753906 77.851562c-2.855468-1.382812-6.273437-.824218-8.542968 1.390626-6.136719 5.984374-25.390626 20.886718-40.558594 18.011718-17.980469-3.410156-31.359375 2.542969-39.554688 8.324219-3.949218-8.417969-11.609375-19.082031-26.121094-24.675781-19.820312-7.640625-21.589843-40.082032-21.605468-40.394532-.136719-3.09375-2.15625-5.789062-5.085938-6.789062-2.933594-1.003906-6.175781-.105469-8.175781 2.261719-21.910156 25.894531-26.125 56.410156-12.191406 88.242187 6.84375 15.628906 16.4375 27.808594 22.226562 34.335938-2.027343 1.949218-4.816406 4.257812-8.332031 6.304687-10.851562 6.3125-23.109375 7.03125-36.4375 2.140625-8.679688-3.1875-15.597656-21.828125-22.917969-41.5625-17.855469-48.136718-44.84375-120.882812-143.503906-124.9375-4.144531-.164062-7.65625 3.058594-7.828125 7.210938-.167969 4.152344 3.058594 7.65625 7.210938 7.828125 39.246093 1.613281 69.152343 14.96875 91.421874 40.835937 19.375 22.496094 30.027344 51.21875 38.589844 74.296875 9.300782 25.074219 16.652344 44.878907 31.84375 50.457031 8.023438 2.941407 15.355469 4.105469 21.929688 4.105469 11.527344 0 20.730468-3.570312 27.253906-7.363281 11.050781-6.425781 16.917969-14.910156 17.160156-15.269531 2.078125-3.042969 1.636719-7.152344-1.03125-9.695313-.148437-.144531-15.050781-14.488281-23.96875-35.113281-8.902344-20.585937-8.820312-39.851563.207032-57.480469 3.746093 12.792969 11.5625 28.359375 27.816406 34.625 17.40625 6.714844 20.492187 24.3125 20.609375 25.015625.976562 6.402344 9.433593 8.601563 13.398437 3.460938.121094-.15625 12.28125-15.550781 34.28125-11.375 11.179688 2.121093 23.722656-1.019531 37.265625-9.332031-2.019531 7.320312-5.011719 15.96875-9.359375 24.441406-13.757812 26.8125-34.257812 38.96875-60.941406 36.136718-4.203125-.445312-8.046875 2.8125-8.304688 7.023438-1.847656 30.101562-12.300781 61.039062-29.433593 87.117188-2.28125 3.472656-1.316407 8.140624 2.15625 10.421874 3.433593 2.253907 8.171875 1.269532 10.421875-2.15625 17.136718-26.085937 28.082031-56.699218 31.238281-86.976562 29.421875.511719 52.917969-14.804688 68.253906-44.699219 12.046875-23.476562 14.703125-47.59375 14.8125-48.609375.332031-3.152344-1.351562-6.171875-4.203125-7.558594zm0 0"/><path d="m15.1875 158.273438c1.804688-1.730469 4.9375-4.414063 9.421875-7.109376 9.945313-5.984374 21.472656-9.1875 34.257813-9.527343 16.164062-.441407 28.855468 8.191406 43.539062 18.164062 13.078125 8.882813 27.90625 18.953125 46.808594 22.503907 2.863281.535156 5.6875.78125 8.453125.78125 27.640625 0 49.636719-24.453126 50.648437-25.597657 2.75-3.105469 2.460938-7.847656-.640625-10.605469-3.105469-2.757812-7.859375-2.476562-10.621093.621094-.214844.246094-22.011719 24.335938-45.066407 20.007813-15.816406-2.96875-28.683593-11.710938-41.128906-20.160157-15.421875-10.476562-31.378906-21.285156-52.390625-20.757812-17.277344.453125-30.464844 5.347656-39.777344 10.605469 2.9375-12.160157 7.960938-28.769531 16.242188-45.746094 21.046875-43.140625 52.160156-68.207031 92.488281-74.507813 4.105469-.644531 6.914063-4.492187 6.269531-8.597656-.640625-4.105468-4.492187-6.914062-8.59375-6.273437-44.96875 7.027343-80.890625 35.792969-103.882812 83.183593-17.078125 35.199219-21.007813 67.921876-21.1640628 69.296876-.0351562.300781-.0507812.609374-.0507812.914062.0117188 2.046875.707031 50.769531 33.988281 99.617188 2.308594 3.382812 7.0625 4.292968 10.453125 1.980468 3.4375-2.339844 4.324219-7.023437 1.984375-10.457031-26.175781-38.414063-30.523437-77.554687-31.238281-88.335937zm0 0"/><path d="m121.472656 110.851562c0 10.636719 6.710938 18.96875 15.273438 18.96875 8.566406 0 15.273437-8.332031 15.273437-18.96875 0-10.636718-6.707031-18.96875-15.273437-18.96875-8.5625-.003906-15.273438 8.332032-15.273438 18.96875zm0 0"/><path d="m367.292969 280.1875c-28.09375 30.359375-65.78125 48.757812-109.273438 53.449219-5.292969-17.441407-8.8125-36.84375-4.59375-56.859375.855469-4.066406-1.746093-8.058594-5.8125-8.914063-4.066406-.855469-8.058593 1.746094-8.914062 5.8125-7.039063 33.402344 4.539062 64.796875 12.996093 87.71875 4.484376 12.160157 10.066407 27.296875 6.433594 29.6875-3.246094 2.132813-11.953125 1.195313-24.089844-5.710937-17.515624-9.972656-35.617187-28.488282-48.425781-49.539063-11.125-18.28125-24.03125-47.804687-22.359375-84.644531.1875-4.152344-3.023437-7.671875-7.175781-7.859375-4.144531-.191406-7.667969 3.027344-7.859375 7.175781-1.257812 27.707032 4.757812 52.761719 14.519531 74.261719-40.347656-10.957031-73.324219-29.652344-98.148437-55.683594-2.867188-3.007812-7.632813-3.121093-10.640625-.253906-3.007813 2.871094-3.121094 7.632813-.253907 10.640625 10.246094 10.742188 21.75 20.3125 34.453126 28.695312 18.980468 47.832032 38.347656 74.441407 57.585937 79.078126 8.898437 2.140624 18.496094 1.082031 25.613281-5.042969 5.835938-5.023438 9.789063-12.875 11.800782-23.378907 13.992187 18.359376 29.953124 31.949219 43.445312 39.628907 9.246094 5.261719 20.511719 10.074219 31.398438 8.367187 2.980468-.46875 5.871093-1.496094 8.398437-3.15625 13.628906-8.953125 7.046875-26.804687-.578125-47.472656-.953125-2.582031-1.929688-5.238281-2.90625-7.957031 45.777344-5.636719 85.53125-25.507813 115.433594-57.816407 2.824218-3.050781 2.636718-7.8125-.414063-10.636718-3.046875-2.824219-7.808593-2.636719-10.632812.410156zm-205.769531 90.609375c-1.074219.921875-4.335938 3.71875-12.265626 1.808594-11.5-2.769531-25.496093-21.359375-39.429687-51.894531 18.007813 9.113281 37.96875 16.226562 59.789063 21.296874-.039063 8.875-1.511719 23.140626-8.09375 28.789063zm0 0"/></svg>